<svg width="13" height="9" viewBox="0 0 13 9" fill="none" xmlns="http://www.w3.org/2000/svg">
<path d="M1.69048 3.77664C1.29098 3.39531 0.657984 3.41003 0.276644 3.80952C-0.104695 4.20902 -0.0899739 4.84202 0.309524 5.22336L1.69048 3.77664ZM4.66667 8L3.97619 8.72336C4.36262 9.09221 4.97072 9.09221 5.35714 8.72336L4.66667 8ZM12.6905 1.72336C13.09 1.34202 13.1047 0.709023 12.7234 0.309524C12.342 -0.0899739 11.709 -0.104695 11.3095 0.276644L12.6905 1.72336ZM0.309524 5.22336L3.97619 8.72336L5.35714 7.27664L1.69048 3.77664L0.309524 5.22336ZM5.35714 8.72336L12.6905 1.72336L11.3095 0.276644L3.97619 7.27664L5.35714 8.72336Z" fill="#5344FF"/>
</svg>
